<svg width="13" height="12" viewBox="0 0 13 12" fill="none" xmlns="http://www.w3.org/2000/svg">
<path d="M1.1685 5.65718C0.834446 5.65718 0.563638 5.92799 0.563636 6.26204C0.563633 6.5961 0.834437 6.8669 1.16849 6.86691L1.1685 5.65718ZM12.3589 6.26213L12.7866 6.68983C13.0228 6.45361 13.0228 6.07064 12.7866 5.83442L12.3589 6.26213ZM8.07258 1.12038C7.83637 0.884167 7.45339 0.884167 7.21718 1.12038C6.98097 1.35659 6.98097 1.73957 7.21718 1.97578L8.07258 1.12038ZM7.21718 10.5485C6.98097 10.7847 6.98097 11.1677 7.21718 11.4039C7.45339 11.6401 7.83637 11.6401 8.07258 11.4039L7.21718 10.5485ZM1.16849 6.86691L12.3589 6.86699L12.3589 5.65726L1.1685 5.65718L1.16849 6.86691ZM7.21718 1.97578L11.9312 6.68983L12.7866 5.83442L8.07258 1.12038L7.21718 1.97578ZM11.9312 5.83442L7.21718 10.5485L8.07258 11.4039L12.7866 6.68983L11.9312 5.83442Z" fill="white"/>
</svg>
